<svg width="20" height="20" viewBox="0 0 256 256"
  xmlns="http://www.w3.org/2000/svg">
  <path fill="#fcd4d5" d="M237.7 66.3a8.1 8.1 0 0 0-11.4 0L192 100.7L155.3 64l34.4-34.3a8.1 8.1 0 0 0-11.4-11.4L144 52.7l-26.3-26.4a8.1 8.1 0 0 0-11.4 11.4l6.4 6.3L61 95.7a40.1 40.1 0 0 0 0 56.6L76.7 168l-50.4 50.3a8.1 8.1 0 0 0 0 11.4a8.2 8.2 0 0 0 11.4 0L88 179.3l15.7 15.7a40.1 40.1 0 0 0 56.6 0l51.7-51.7l6.3 6.4a8.2 8.2 0 0 0 11.4 0a8.1 8.1 0 0 0 0-11.4L203.3 112l34.4-34.3a8.1 8.1 0 0 0 0-11.4ZM149 183.7a24 24 0 0 1-34 0L72.3 141a24.1 24.1 0 0 1 0-34L124 55.3l76.7 76.7Z"></path>
</svg>